<?xml version="1.0" encoding="UTF-8"?>
<svg xmlns="http://www.w3.org/2000/svg" version="1.1" viewBox="0 0 32 32">
  <defs>
    <style>
      .cls-1 {
        fill: #fff;
      }
    </style>
  </defs>
  <!-- Generator: Adobe Illustrator 28.6.0, SVG Export Plug-In . SVG Version: 1.2.0 Build 709)  -->
  <g>
    <g id="Warstwa_1">
      <path class="cls-1" d="M16.3,8.3c2.6,0,2.9,0,3.9,0,.6,0,1.2.1,1.8.3.4.1.8.4,1.1.7.3.3.6.7.7,1.1.2.6.3,1.1.3,1.7,0,1,0,1.3,0,3.8s0,2.8,0,3.8c0,.6-.1,1.2-.3,1.7-.2.4-.4.8-.7,1.1-.3.3-.7.5-1.1.7-.6.2-1.2.3-1.8.3-1,0-1.3,0-3.9,0s-2.9,0-3.9,0c-.6,0-1.2-.1-1.8-.3-.4-.1-.8-.4-1.1-.7-.3-.3-.6-.7-.7-1.1-.2-.6-.3-1.1-.3-1.7,0-1,0-1.3,0-3.8s0-2.8,0-3.8c0-.6.1-1.2.3-1.7.2-.4.4-.8.7-1.1.3-.3.7-.5,1.1-.7.6-.2,1.2-.3,1.8-.3,1,0,1.3,0,3.9,0ZM16.3,6.7c-2.6,0-2.9,0-4,0-.8,0-1.6.2-2.3.4-.6.2-1.2.6-1.7,1.1-.5.5-.9,1-1.1,1.6-.3.7-.4,1.5-.4,2.3,0,1,0,1.3,0,3.8s0,2.9,0,3.8c0,.8.2,1.5.4,2.3.2.6.6,1.2,1.1,1.7.5.5,1.1.8,1.7,1.1.8.3,1.5.4,2.3.4,1,0,1.4,0,4,0s2.9,0,4,0c.8,0,1.6-.2,2.4-.4.6-.2,1.2-.6,1.7-1.1.5-.5.9-1,1.1-1.7.3-.7.4-1.5.4-2.3,0-1,0-1.3,0-3.8s0-2.9,0-3.8c0-.8-.2-1.5-.5-2.3-.2-.6-.6-1.2-1.1-1.7-.5-.5-1.1-.8-1.7-1.1-.8-.3-1.5-.4-2.3-.4-1,0-1.4,0-4,0Z"/>
      <path class="cls-1" d="M16.3,11.7c-.9,0-1.7.3-2.5.7-.7.5-1.3,1.1-1.6,1.9-.3.8-.4,1.7-.3,2.5.2.8.6,1.6,1.2,2.2s1.4,1,2.3,1.2c.9.2,1.8,0,2.6-.2.8-.3,1.5-.9,2-1.6.5-.7.7-1.5.7-2.4s-.5-2.2-1.3-3c-.8-.8-2-1.3-3.1-1.3ZM16.3,18.8c-.6,0-1.1-.2-1.6-.5-.5-.3-.8-.7-1.1-1.3-.2-.5-.3-1.1-.2-1.6.1-.5.4-1,.8-1.4.4-.4.9-.7,1.5-.8.6-.1,1.1,0,1.7.2.5.2,1,.6,1.3,1,.3.5.5,1,.5,1.6,0,.4,0,.7-.2,1.1-.1.3-.4.6-.6.9-.3.3-.6.5-.9.6s-.7.2-1.1.2Z"/>
      <path class="cls-1" d="M21.4,12.3c.7,0,1.3-.6,1.3-1.2s-.6-1.2-1.3-1.2-1.3.6-1.3,1.2.6,1.2,1.3,1.2Z"/>
    </g>
  </g>
</svg>