<?xml version="1.0" encoding="UTF-8"?>
<svg xmlns="http://www.w3.org/2000/svg" version="1.1" viewBox="0 0 32 32">
  <defs>
    <style>
      .cls-1 {
        fill: #fff;
      }
    </style>
  </defs>
  <!-- Generator: Adobe Illustrator 28.6.0, SVG Export Plug-In . SVG Version: 1.2.0 Build 709)  -->
  <g>
    <g id="Warstwa_1">
      <path class="cls-1" d="M21.6,9.8c-1-.7-1.7-1.7-1.9-3,0-.3,0-.5,0-.8h-3.2v13.1c0,1.5-1.2,2.6-2.7,2.6s-.9-.1-1.2-.3c-.8-.5-1.4-1.4-1.4-2.4,0-1.5,1.2-2.7,2.7-2.7s.5,0,.8.1v-3.3c-.3,0-.5,0-.8,0-3.2,0-5.8,2.7-5.8,6s1,3.8,2.5,4.9c.9.7,2.1,1.1,3.3,1.1,3.2,0,5.8-2.7,5.8-6v-6.6c1.2.9,2.8,1.5,4.4,1.5v-3.3c-.9,0-1.7-.3-2.4-.7Z"/>
    </g>
  </g>
</svg>