<?xml version="1.0" encoding="UTF-8"?>
<svg xmlns="http://www.w3.org/2000/svg" version="1.1" viewBox="0 0 317 349.3">
  <defs>
    <style>
      .cls-1 {
        fill: none;
      }

      .cls-2 {
        fill: #fff;
      }
    </style>
  </defs>
  <!-- Generator: Adobe Illustrator 28.6.0, SVG Export Plug-In . SVG Version: 1.2.0 Build 709)  -->
  <g>
    <g id="Warstwa_1">
      <path class="cls-2" d="M158.1,24.1c-33.1,0-64.5,14.8-85.6,40.4.8,4.2,2.1,8.2,3.9,12.1,32.2-45.1,94.9-55.6,140-23.4,9.1,6.5,17,14.4,23.4,23.4,1.8-3.9,3.1-7.9,3.9-12.1-21-25.6-52.4-40.4-85.6-40.4ZM261.7,95.5c-1.6,2.5-3.3,4.9-5.2,7.2-.8.9-1.6,1.8-2.4,2.7,16.3,53-13.4,109.2-66.5,125.5-53,16.3-109.2-13.4-125.5-66.5-5.9-19.2-5.9-39.8,0-59.1-.8-.9-1.6-1.8-2.4-2.7-1.9-2.3-3.6-4.7-5.1-7.2-21.8,57.2,7,121.2,64.2,143,57.2,21.8,121.2-7,143-64.2,9.7-25.4,9.7-53.4,0-78.8h0Z"/>
      <line class="cls-1" x1="173.5" y1="183.8" x2="173.5" y2="183.8"/>
      <path class="cls-2" d="M264.3,56c-.9,11.1-3.3,20.9-7.2,29.1-1.8,3.8-4,7.3-6.5,10.6-3.6,4.7-8.1,8.7-13.2,11.7-3,1.8-6.2,3.3-9.5,4.5-7.2,2.5-14.8,3.7-22.5,3.6-12.5,0-23.4,8.9-34.5,20.9-1.2,1.3-3.4,3.7-6.2,7l6.7,8.3c3.4-2.3,7.1-4.1,11-5.4,8.9-2.8,15.8-2,20.3-2.2-.1.4-17.8,22.2-24.7,32.1,0,0-32.2-39.2-32.8-39.8-10.9-11.8-21.9-20.9-34.5-20.9-7.7,0-15.3-1.1-22.5-3.6-3.3-1.2-6.5-2.7-9.5-4.5-5.1-3.1-9.5-7.1-13.2-11.7-2.5-3.3-4.7-6.8-6.5-10.6-3.9-8.2-6.3-17.9-7.2-29.1,3.1-4.2,6.4-8.1,10-11.9v2.2c0,11.1,1.4,20.1,3.8,27.6,1.3,4,3,7.8,5.2,11.4,3,5,7.1,9.3,12,12.5,2.9,1.9,6.1,3.4,9.4,4.6,6,1.9,12.3,2.9,18.6,2.8,2,0,4.1.2,6.1.5-3.9-8.5-5.9-17.8-5.8-27.1,3.5-2.9,7.3-5.5,11.3-7.8l-.5,3.7c-1.8,12.2,3,30.7,13.9,39.2l4.1,3.2h0c4.4,3.6,8.5,7.5,12.3,11.6,2,2.2,4,4.4,6,6.7,2-2.3,4-4.5,6-6.7,3.8-4.1,7.9-8,12.3-11.6h0c0-.1,4.1-3.3,4.1-3.3,10.9-8.5,15.7-27,13.9-39.2l-.5-3.7c4,2.2,7.8,4.8,11.3,7.7.2,9.4-1.8,18.7-5.8,27.2,2-.3,4.1-.5,6.1-.5,6.3.1,12.5-.8,18.5-2.8,3.3-1.1,6.4-2.6,9.4-4.6,4.9-3.2,9-7.5,12-12.5,2.2-3.6,3.9-7.4,5.1-11.4,2.4-7.4,3.8-16.5,3.8-27.6v-2.2c3.6,3.8,6.9,7.8,10,11.9Z"/>
      <polygon class="cls-2" points="34.7 301.9 48.9 301.9 32.9 326.4 32.9 327.4 61 327.4 61 320.3 45.7 320.3 61.6 295.8 61.6 294.8 34.7 294.8 34.7 301.9"/>
      <rect class="cls-2" x="68.8" y="294.8" width="8.2" height="32.6"/>
      <rect class="cls-2" x="68.8" y="283" width="8.2" height="7.2"/>
      <path class="cls-2" d="M114.8,303.1c-1-2.8-2.9-5.1-5.3-6.8-2.6-1.7-5.6-2.5-8.7-2.4-3,0-5.9.7-8.5,2.2-2.5,1.5-4.5,3.6-5.8,6.1-1.5,2.9-2.2,6.1-2.1,9.3,0,3,.7,6,2.2,8.7,1.4,2.5,3.5,4.6,6,6,2.7,1.5,5.7,2.2,8.8,2.2,3.1,0,6.1-.8,8.7-2.5,2.6-1.6,4.7-4.1,5.8-6.9l-8.2-2.4c-.6,1.2-1.5,2.3-2.6,3-1.3.7-2.7,1.1-4.1,1.1-2.2.1-4.4-.8-5.8-2.5-1-1.4-1.7-3-1.8-4.8h22.9c.4-3.5,0-7-1.2-10.3ZM93.4,307.3c.2-1.3.8-2.6,1.6-3.7,1.3-1.7,3.4-2.5,6.2-2.5s4.1.7,5.2,2.2c.8,1.2,1.3,2.6,1.4,4.1h-14.3Z"/>
      <rect class="cls-2" x="123.4" y="283" width="8.2" height="44.4"/>
      <path class="cls-2" d="M169.8,302.2c-1.3-2.5-3.3-4.6-5.8-6.1-5.4-2.9-11.8-2.9-17.2,0-2.5,1.4-4.5,3.5-5.8,6-2.8,5.6-2.8,12.3,0,17.9,1.3,2.5,3.3,4.6,5.8,6.1,5.4,2.9,11.9,2.9,17.2,0,2.5-1.4,4.5-3.5,5.8-6.1,2.8-5.6,2.8-12.2,0-17.9h0ZM161.2,318c-2.9,3.3-7.8,3.6-11.1.7-.2-.2-.4-.4-.6-.6-1.4-2-2.1-4.5-2-7,0-1.7.2-3.4.8-5,.5-1.3,1.4-2.5,2.6-3.4,1.3-.8,2.9-1.3,4.4-1.2,2.3-.2,4.5.8,5.9,2.6,1.4,2,2.1,4.5,2,6.9.1,2.5-.6,4.9-2,6.9Z"/>
      <path class="cls-2" d="M208.2,302.6c-.4-1.5-1-2.9-1.9-4.1-1-1.4-2.2-2.5-3.8-3.3-1.9-.9-4.1-1.4-6.2-1.3-2.8-.1-5.6.6-8,2.1-1,.6-1.8,1.4-2.6,2.3v-3.4h-7.3v32.6h8.3v-16.5c0-1.7.2-3.3.7-4.9.3-1.1.9-2,1.7-2.8.6-.6,1.4-1,2.3-1.3.7-.2,1.5-.3,2.3-.3,1.4,0,2.9.3,4.1,1.2.9.8,1.7,1.8,2.1,2.9.4,1.1.7,2.3.8,3.5,0,1.2.1,2.1.1,2.9v15.4h8.3v-18.3c0-.5,0-1.4-.1-2.6-.1-1.3-.3-2.6-.7-3.9Z"/>
      <path class="cls-2" d="M245,303.1c-1-2.8-2.9-5.1-5.3-6.8-2.6-1.7-5.6-2.5-8.7-2.4-3,0-5.9.7-8.5,2.2-2.5,1.5-4.5,3.6-5.8,6.1-1.5,2.9-2.2,6.1-2.1,9.3,0,3,.7,6,2.2,8.7,1.4,2.5,3.5,4.6,6,6,2.7,1.5,5.7,2.2,8.8,2.2,3.1,0,6.1-.8,8.7-2.5,2.6-1.6,4.7-4.1,5.8-6.9l-8.2-2.4c-.6,1.2-1.5,2.3-2.6,3-1.2.7-2.7,1.1-4.1,1.1-2.2.1-4.4-.8-5.8-2.5-1-1.4-1.7-3-1.8-4.8h22.9c.4-3.5,0-7-1.3-10.3ZM223.6,307.3c.2-1.3.8-2.6,1.6-3.7,1.3-1.7,3.4-2.5,6.2-2.5s4.1.7,5.2,2.2c.8,1.2,1.3,2.6,1.4,4.1h-14.3Z"/>
      <polygon class="cls-2" points="270.8 311.1 282.5 294.8 272.4 294.8 261.3 310.5 261.3 283.9 253 283.9 253 327.4 261.3 327.4 261.3 311.7 272.6 327.4 283.3 327.4 270.8 311.1"/>
      <path class="cls-2" d="M173.5,183.8c-1,1.9-1.9,4-2.8,6s-1.7,4.1-2.4,6.1h0c-2.5,6.8-4.1,12.9-4.9,15.6-.3,1.1-.9,2.1-1.7,2.9-.2.2-.4.3-.6.5-.3.2-.6.4-1,.5h-.4c0,.1-.4.2-.4.2-.2,0-.5.1-.7.1-.2,0-.5,0-.7,0h-.1c-.2,0-.5,0-.7,0-.2,0-.5,0-.7-.1h-.4c-.2-.2-.5-.3-.7-.4-.4-.2-.9-.5-1.2-.9-.8-.8-1.4-1.8-1.7-2.9-.4-1.5-1-3.9-2-6.9-.4-1.3-.9-2.8-1.4-4.3-.7-2.3-1.6-4.7-2.5-7.1l-.5-1.2c-.1-.3-.2-.7-.4-1l-.2-.5c-.1-.3-.3-.7-.4-1-.7-1.6-1.4-3.2-2.2-4.8-1.1-2.2-2.3-4.4-3.6-6.5-5.6-8.5-26-33.8-26.1-34.2,4.5.2,11.4-.6,20.3,2.2,8.4,2.8,15.8,7.9,21.3,14.8l18.5,22.7Z"/>
    </g>
  </g>
</svg>